<svg xmlns="http://www.w3.org/2000/svg" viewBox="0 0 512 512" width="512" height="512">
  <defs>
    <linearGradient id="folderGradient" x1="0%" y1="0%" x2="100%" y2="0%">
      <stop offset="0%" style="stop-color:#00d4ff;stop-opacity:1" />
      <stop offset="50%" style="stop-color:#00b4ff;stop-opacity:1" />
      <stop offset="100%" style="stop-color:#0080ff;stop-opacity:1" />
    </linearGradient>
  </defs>
  
  <!-- Main folder body with refined curves -->
  <path d="M 64 140 C 48 140 36 152 36 168 L 36 380 C 36 396 48 408 64 408 L 448 408 C 464 408 476 396 476 380 L 476 200 C 476 184 464 172 448 172 L 280 172 C 272 172 265 169 260 164 L 242 146 C 237 141 230 138 222 138 L 64 138 C 48 138 36 150 36 166 L 36 168 C 36 152 48 140 64 140 Z" 
        fill="url(#folderGradient)"/>
  
  <!-- Top highlight for depth -->
  <path d="M 64 148 C 54 148 46 156 46 166 L 46 176 L 46 166 C 46 156 54 148 64 148 L 218 148 C 224 148 229 150 233 154 L 248 169 L 448 169 C 458 169 466 177 466 187 L 466 197 L 466 187 C 466 177 458 169 448 169 L 276 169 C 270 169 265 167 261 163 L 244 146 C 240 142 234 140 228 140 L 64 140 C 54 140 46 148 46 158 L 46 166 C 46 156 54 148 64 148 Z"
        fill="#ffffff"
        opacity="0.15"/>
        
  <!-- Bottom edge accent -->
  <path d="M 64 402 C 52 402 42 392 42 380 L 42 370 C 42 382 52 392 64 392 L 448 392 C 460 392 470 382 470 370 L 470 380 C 470 392 460 402 448 402 L 64 402 Z"
        fill="#000000"
        opacity="0.1"/>
</svg>
