<svg xmlns="http://www.w3.org/2000/svg" viewBox="0 0 512 512" width="512" height="512">
  <defs>
    <linearGradient id="folderGradient" x1="0%" y1="0%" x2="100%" y2="0%">
      <stop offset="0%" style="stop-color:#00d4ff;stop-opacity:1" />
      <stop offset="100%" style="stop-color:#0080ff;stop-opacity:1" />
    </linearGradient>
  </defs>
  
  <path d="M 64 128 C 46.3 128 32 142.3 32 160 L 32 384 C 32 401.7 46.3 416 64 416 L 448 416 C 465.7 416 480 401.7 480 384 L 480 192 C 480 174.3 465.7 160 448 160 L 272 160 L 243.2 131.2 C 237.9 125.9 230.6 122.7 222.9 122.7 L 64 122.7 C 46.3 122.7 32 137 32 154.7 L 32 160 C 32 142.3 46.3 128 64 128 Z" 
        fill="url(#folderGradient)"/>
</svg>
