<svg xmlns="http://www.w3.org/2000/svg" viewBox="50 450 4150 1300" width="4150" height="1300">
  <defs>
    <linearGradient id="folderGradient" x1="0%" y1="0%" x2="100%" y2="0%">
      <stop offset="0%" style="stop-color:#00d4ff;stop-opacity:1" />
      <stop offset="50%" style="stop-color:#00b4ff;stop-opacity:1" />
      <stop offset="100%" style="stop-color:#0080ff;stop-opacity:1" />
    </linearGradient>
  </defs>
  
  <!-- Main folder body with refined curves -->
  <path d="M 256 560 C 192 560 144 608 144 672 L 144 1520 C 144 1584 192 1632 256 1632 L 1792 1632 C 1856 1632 1904 1584 1904 1520 L 1904 800 C 1904 736 1856 688 1792 688 L 1120 688 C 1088 688 1060 676 1040 656 L 968 584 C 948 564 920 552 888 552 L 256 552 C 192 552 144 600 144 664 L 144 672 C 144 608 192 560 256 560 Z" 
        fill="url(#folderGradient)"/>
  
  <!-- Top highlight for depth -->
  <path d="M 256 592 C 216 592 184 624 184 664 L 184 704 L 184 664 C 184 624 216 592 256 592 L 872 592 C 896 592 916 600 932 616 L 992 676 L 1792 676 C 1832 676 1864 708 1864 748 L 1864 788 L 1864 748 C 1864 708 1832 676 1792 676 L 1104 676 C 1080 676 1060 668 1044 652 L 976 584 C 960 568 936 560 912 560 L 256 560 C 216 560 184 592 184 632 L 184 664 C 184 624 216 592 256 592 Z"
        fill="#ffffff"
        opacity="0.08"/>
        
  <!-- Bottom edge accent -->
  <path d="M 256 1608 C 208 1608 168 1568 168 1520 L 168 1480 C 168 1528 208 1568 256 1568 L 1792 1568 C 1840 1568 1880 1528 1880 1480 L 1880 1520 C 1880 1568 1840 1608 1792 1608 L 256 1608 Z"
        fill="#000000"
        opacity="0.05"/>
  
  <!-- Text: maxstash -->
  <text x="2000" y="1230" font-family="'Impact', 'Anton', 'Archivo Black', 'Bebas Neue', sans-serif" font-size="480" font-weight="900" fill="#ffffff" letter-spacing="25">maxstash</text>
</svg>
