<svg version="1.2" xmlns="http://www.w3.org/2000/svg" viewBox="0 0 1300 1226" width="1300" height="1226">
	<defs>
		<linearGradient id="g1" x2="1" gradientUnits="userSpaceOnUse" gradientTransform="matrix(862.297,1020.041,-941.961,796.291,.381,205.448)">
			<stop offset="0" stop-color="#3b82f6"/>
			<stop offset="1" stop-color="#1d4ed8"/>
		</linearGradient>
		<linearGradient id="g2" x2="1" gradientUnits="userSpaceOnUse" gradientTransform="matrix(792.959,975.23,-922.375,749.983,106.114,91.36)">
			<stop offset="0" stop-color="#8b5cf6"/>
			<stop offset="1" stop-color="#6366f1"/>
		</linearGradient>
		<linearGradient id="g3" x2="1" gradientUnits="userSpaceOnUse" gradientTransform="matrix(716.8,921.6,-891.542,693.421,281.36,0)">
			<stop offset="0" stop-color="#06b6d4"/>
			<stop offset="1" stop-color="#0891b2"/>
		</linearGradient>
		<linearGradient id="g4" x2="1" gradientUnits="userSpaceOnUse" gradientTransform="matrix(792.959,975.23,-975.748,793.381,400.927,91.36)">
			<stop offset="0" stop-color="#10b981"/>
			<stop offset="1" stop-color="#059669"/>
		</linearGradient>
		<linearGradient id="g5" x2="1" gradientUnits="userSpaceOnUse" gradientTransform="matrix(862.297,1020.041,-1054.851,891.723,437.322,205.448)">
			<stop offset="0" stop-color="#f59e0b"/>
			<stop offset="1" stop-color="#d97706"/>
		</linearGradient>
	</defs>
	<style>
		.s0 { fill: url(#g1) } 
		.s1 { opacity: .3;fill: #ffffff } 
		.s2 { fill: url(#g2) } 
		.s3 { fill: url(#g3) } 
		.s4 { opacity: .2;fill: #ffffff } 
		.s5 { fill: url(#g4) } 
		.s6 { fill: url(#g5) } 
	</style>
	<g>
		<path fill-rule="evenodd" class="s0" d="m65.29 322.22l540.87-114.96c44.26-9.41 87.76 18.84 97.16 63.09l157.55 741.2c9.41 44.26-18.84 87.76-63.1 97.17l-540.87 114.96c-44.26 9.41-87.76-18.84-97.17-63.1l-157.54-741.2c-9.41-44.25 18.84-87.75 63.1-97.16z"/>
		<path fill-rule="evenodd" class="s1" d="m88.08 380.19l520.84-110.71c16.6-3.53 32.91 7.07 36.44 23.66 3.52 16.6-7.07 32.91-23.67 36.44l-520.84 110.71c-16.6 3.53-32.91-7.07-36.44-23.66-3.52-16.6 7.07-32.91 23.67-36.44z"/>
		<path fill-rule="evenodd" class="s1" d="m113.62 500.39l520.85-110.71c16.59-3.53 32.91 7.06 36.43 23.66 3.53 16.59-7.06 32.91-23.66 36.43l-520.84 110.71c-16.6 3.53-32.91-7.06-36.44-23.66-3.53-16.59 7.07-32.91 23.66-36.43z"/>
	</g>
	<g>
		<path fill-rule="evenodd" class="s2" d="m179.46 149.6l549.93-57.8c45-4.73 85.31 27.91 90.04 72.91l79.2 753.61c4.73 44.99-27.91 85.3-72.9 90.03l-549.94 57.8c-44.99 4.73-85.3-27.91-90.03-72.91l-79.21-753.61c-4.73-44.99 27.92-85.3 72.91-90.03z"/>
		<path fill-rule="evenodd" class="s1" d="m196.07 209.63l529.56-55.66c16.87-1.77 31.99 10.47 33.76 27.34 1.78 16.88-10.46 31.99-27.34 33.77l-529.56 55.66c-16.87 1.77-31.99-10.47-33.76-27.34-1.78-16.88 10.46-31.99 27.34-33.77z"/>
		<path fill-rule="evenodd" class="s1" d="m208.91 331.84l529.56-55.66c16.88-1.77 31.99 10.47 33.77 27.34 1.77 16.87-10.47 31.99-27.34 33.76l-529.57 55.66c-16.87 1.78-31.99-10.46-33.76-27.34-1.77-16.87 10.47-31.99 27.34-33.76z"/>
	</g>
	<g>
		<path fill-rule="evenodd" class="s3" d="m363.28 0h552.96c45.24 0 81.92 36.68 81.92 81.92v757.76c0 45.24-36.68 81.92-81.92 81.92h-552.96c-45.24 0-81.92-36.68-81.92-81.92v-757.76c0-45.24 36.68-81.92 81.92-81.92z"/>
		<path fill-rule="evenodd" class="s1" d="m373.52 61.44h532.48c16.97 0 30.72 13.75 30.72 30.72 0 16.97-13.75 30.72-30.72 30.72h-532.48c-16.97 0-30.72-13.75-30.72-30.72 0-16.97 13.75-30.72 30.72-30.72z"/>
		<path fill-rule="evenodd" class="s1" d="m373.52 184.32h532.48c16.97 0 30.72 13.75 30.72 30.72 0 16.97-13.75 30.72-30.72 30.72h-532.48c-16.97 0-30.72-13.75-30.72-30.72 0-16.97 13.75-30.72 30.72-30.72z"/>
		<path fill-rule="evenodd" class="s4" d="m630.48 717.44c-90.6 0-163.84-73.24-163.84-163.84 0-90.6 73.24-163.84 163.84-163.84 90.6 0 163.84 73.24 163.84 163.84 0 90.6-73.24 163.84-163.84 163.84z"/>
	</g>
	<g>
		<path fill-rule="evenodd" class="s5" d="m570.61 91.8l549.93 57.8c44.99 4.73 77.64 45.04 72.91 90.03l-79.21 753.61c-4.73 45-45.04 77.64-90.03 72.91l-549.94-57.8c-44.99-4.73-77.63-45.04-72.9-90.03l79.2-753.61c4.73-45 45.04-77.64 90.04-72.91z"/>
		<path fill-rule="evenodd" class="s1" d="m574.37 153.97l529.56 55.66c16.88 1.78 29.12 16.89 27.34 33.77-1.77 16.87-16.89 29.11-33.76 27.34l-529.56-55.66c-16.88-1.78-29.12-16.89-27.34-33.77 1.77-16.87 16.89-29.11 33.76-27.34z"/>
		<path fill-rule="evenodd" class="s1" d="m561.53 276.18l529.56 55.66c16.87 1.77 29.11 16.89 27.34 33.76-1.77 16.88-16.89 29.12-33.76 27.34l-529.57-55.66c-16.87-1.77-29.11-16.89-27.34-33.76 1.78-16.87 16.89-29.11 33.77-27.34z"/>
	</g>
	<g>
		<path fill-rule="evenodd" class="s6" d="m693.84 207.26l540.87 114.96c44.26 9.41 72.51 52.91 63.1 97.16l-157.54 741.2c-9.41 44.26-52.91 72.51-97.17 63.1l-540.87-114.96c-44.26-9.41-72.51-52.91-63.1-97.17l157.55-741.2c9.4-44.25 52.9-72.5 97.16-63.09z"/>
		<path fill-rule="evenodd" class="s1" d="m691.08 269.48l520.84 110.71c16.6 3.53 27.19 19.84 23.67 36.44-3.53 16.59-19.84 27.19-36.44 23.66l-520.84-110.71c-16.6-3.53-27.19-19.84-23.67-36.44 3.53-16.59 19.84-27.19 36.44-23.66z"/>
		<path fill-rule="evenodd" class="s1" d="m665.53 389.68l520.85 110.71c16.59 3.52 27.19 19.84 23.66 36.43-3.53 16.6-19.84 27.19-36.44 23.66l-520.84-110.71c-16.6-3.52-27.19-19.84-23.66-36.43 3.52-16.6 19.84-27.19 36.43-23.66z"/>
	</g>
</svg>